<svg xmlns="http://www.w3.org/2000/svg" version="1.1" xmlns:xlink="http://www.w3.org/1999/xlink" xmlns:svgjs="http://svgjs.dev/svgjs" width="1500" height="977" viewBox="0 0 1500 977"><g transform="matrix(1,0,0,1,0.48427538963267125,0.39554655870443867)"><svg viewBox="0 0 379 247" data-background-color="#efe9dd" preserveAspectRatio="xMidYMid meet" height="977" width="1500" xmlns="http://www.w3.org/2000/svg" xmlns:xlink="http://www.w3.org/1999/xlink"><g id="tight-bounds" transform="matrix(1,0,0,1,-0.12236024844719395,-0.09999999999999432)"><svg viewBox="0 0 379.2447204968944 247.2" height="247.2" width="379.2447204968944"><g><svg viewBox="0 0 379.2447204968944 247.2" height="247.2" width="379.2447204968944"><g><svg viewBox="0 0 379.2447204968944 247.2" height="247.2" width="379.2447204968944"><g id="textblocktransform"><svg viewBox="0 0 379.2447204968944 247.2" height="247.2" width="379.2447204968944" id="textblock"><g><svg viewBox="0 0 379.2447204968944 247.2" height="247.2" width="379.2447204968944"><g transform="matrix(1,0,0,1,0,0)"><svg width="379.2447204968944" viewBox="3.95 -39.95 61.75 40.25" height="247.2" data-palette-color="#00ffff"><path d="M30.95-37.55L30.95-8Q30.95-3.95 28.25-1.95L28.25-1.95Q26.95-1 25.58-0.48 24.2 0.05 22.9 0.05L22.9 0.05 12 0.05Q10.7 0.05 9.33-0.48 7.95-1 6.65-1.95L6.65-1.95Q5.35-2.95 4.65-4.42 3.95-5.9 3.95-8L3.95-8 3.95-37.55Q3.95-39.95 6.9-39.95L6.9-39.95Q9.9-39.95 9.9-37.55L9.9-37.55 9.9-8.4Q9.9-7.1 10.65-6.05 11.4-5 13.25-5L13.25-5 21.65-5Q23.5-5 24.25-6.05 25-7.1 25-8.4L25-8.4 25-37.55Q25-39.95 27.95-39.95L27.95-39.95Q30.95-39.95 30.95-37.55L30.95-37.55ZM59.75-2.1L59.75-37.55Q59.75-39.95 62.7-39.95L62.7-39.95Q65.7-39.95 65.7-37.55L65.7-37.55 65.7-2.1Q65.7 0.3 62.7 0.3L62.7 0.3Q59.75 0.3 59.75-2.1L59.75-2.1ZM44.55-37.55L44.55-2.1Q44.55 0.3 41.55 0.3L41.55 0.3Q38.6 0.3 38.6-2.1L38.6-2.1 38.6-37.55Q38.6-39.95 41.55-39.95L41.55-39.95Q44.55-39.95 44.55-37.55L44.55-37.55ZM56.25-20.65L56.25-20.65Q56.25-18.9 55.05-17.7 53.85-16.5 52.1-16.5L52.1-16.5Q50.4-16.5 49.2-17.7 48-18.9 48-20.65L48-20.65Q48-22.4 49.2-23.6 50.4-24.8 52.1-24.8L52.1-24.8Q53.85-24.8 55.05-23.6 56.25-22.4 56.25-20.65Z" opacity="1" transform="matrix(1,0,0,1,0,0)" fill="#00ffff" class="wordmark-text-0" data-fill-palette-color="primary" id="text-0"></path></svg></g></svg></g></svg></g></svg></g><g></g></svg></g><defs></defs></svg><rect width="379.2447204968944" height="247.2" fill="none" stroke="none" visibility="hidden"></rect></g></svg></g></svg>